#!OML:ASF I:\Actors\actors\Patient Classification 1\Patient 1\Session 1\Subject1.ASF
:FULLY-SPECIFIED
:DEGREES
1312
root 1.06434 17.7132 10.0163 24.3431 -8.3922 -11.318
lowerback 5.45676 -0.376945 8.41839
upperback -9.73273 0.872058 3.40746
thorax -13.7644 -0.242827 -1.0723
lowerneck -8.60116 -3.87684 -1.66807
upperneck 15.2086 -6.69625 9.77711
head 6.4335 -2.61048 2.83757
rclavicle -4.81556e-014 4.73108e-014
rhumerus 48.1948 26.5727 -61.2473
rradius 115.868
rwrist 35.2813
rhand -26.6113 -36.6514
rfingers 7.12502
rthumb -0.0447113 293.369
lclavicle -4.81556e-014 4.73108e-014
lhumerus 26.2691 -40.652 82.8882
lradius 112.814
lwrist -25.8045
lhand -57.1723 -54.4733
lfingers 7.12502
lthumb -29.456 -26.7889
rfemur -18.6501 30.3515 18.0174
rtibia 0.114442
rfoot -4.31001 -26.9647
rtoes 0.897437
lfemur -3.60928 -58.3524 -2.65666
ltibia -6.49319
lfoot -69.8754 54.3862
ltoes 41.6465
1313
root 1.0782 17.7031 10.0249 24.1417 -8.47029 -11.3543
lowerback 5.17962 -0.384828 8.3778
upperback -9.82386 0.826989 3.3956
thorax -13.7012 -0.26136 -1.05423
lowerneck -8.48331 -3.85897 -1.39057
upperneck 15.2101 -6.66183 9.48133
head 6.39211 -2.60431 2.70187
rclavicle -9.65348e-015 4.8901e-014
rhumerus 48.0306 26.5872 -61.2466
rradius 115.898
rwrist 35.229
rhand -26.4709 -36.7092
rfingers 7.12502
rthumb 0.0909049 293.311
lclavicle -9.65348e-015 4.8901e-014
lhumerus 26.0579 -40.7172 82.9706
lradius 112.703
lwrist -26.1098
lhand -57.4019 -53.7077
lfingers 7.12502
lthumb -29.6751 -26.0621
rfemur -18.3402 29.5945 18.345
rtibia 0.190806
rfoot -4.06855 -26.1144
rtoes -0.222719
lfemur -3.03347 -58.3478 -3.24945
ltibia -6.44187
lfoot -69.7427 54.6119
ltoes 41.3714
1314
root 1.09026 17.6939 10.0318 23.9446 -8.55929 -11.3902
lowerback 4.93614 -0.381498 8.31111
upperback -9.8999 0.796021 3.37023
thorax -13.639 -0.271081 -1.03968
lowerneck -8.49446 -3.97132 -1.35944
upperneck 15.2398 -6.80822 9.38251
head 6.40762 -2.67967 2.65208
rclavicle -1.66606e-014 2.06736e-014
rhumerus 47.8803 26.6028 -61.2777
rradius 115.958
rwrist 35.1298
rhand -26.4134 -36.6189
rfingers 7.12502
rthumb 0.146485 293.401
lclavicle -1.66606e-014 2.06736e-014
lhumerus 25.9138 -40.7702 83.025
lradius 112.485
lwrist -26.7505
lhand -57.8972 -52.7124
lfingers 7.12502
lthumb -30.1478 -25.152
rfemur -18.0435 28.9626 18.6307
rtibia 0.264427
rfoot -3.96477 -25.3674
rtoes -0.778458
lfemur -2.46953 -58.3271 -3.83783
ltibia -6.39719
lfoot -69.5901 54.8508
ltoes 41.1697
1315
root 1.10099 17.6857 10.0348 23.773 -8.60274 -11.4666
lowerback 4.70554 -0.395336 8.27422
upperback -9.97248 0.751694 3.39018
thorax -13.5837 -0.287331 -0.989279
lowerneck -8.54435 -3.95904 -1.36278
upperneck 15.4569 -6.81906 9.409
head 6.48711 -2.67463 2.65978
rclavicle 1.50579e-014 -8.11041e-014
rhumerus 47.793 26.6824 -61.2267
rradius 116.02
rwrist 35.1158
rhand -26.4283 -36.7617
rfingers 7.12502
rthumb 0.132045 293.259
lclavicle 1.50579e-014 -8.11041e-014
lhumerus 25.7528 -40.7669 83.1258
lradius 112.467
lwrist -26.726
lhand -58.0378 -52.8759
lfingers 7.12502
lthumb -30.2819 -25.34
rfemur -17.8155 28.6695 18.8686
rtibia 0.347033
rfoot -3.98702 -24.9967
rtoes -0.98854
lfemur -2.03304 -58.3127 -4.24214
ltibia -6.34589
lfoot -69.6875 54.8406
ltoes 41.2987
1316
root 1.10978 17.6797 10.0349 23.5256 -8.63715 -11.5281
lowerback 4.59787 -0.419418 8.18954
upperback -10.0188 0.702468 3.42079
thorax -13.5743 -0.300858 -0.900034
lowerneck -8.44979 -3.97353 -1.53459
upperneck 15.4372 -6.85065 9.63379
head 6.47961 -2.68655 2.75912
rclavicle -7.85199e-015 -3.93594e-014
rhumerus 47.7257 26.8091 -61.1741
rradius 116.049
rwrist 35.2696
rhand -26.4002 -37.2076
rfingers 7.12502
rthumb 0.159182 292.813
lclavicle -7.85199e-015 -3.93594e-014
lhumerus 25.6197 -40.8072 83.1931
lradius 112.651
lwrist -26.125
lhand -57.7541 -53.673
lfingers 7.12502
lthumb -30.0113 -26.0878
rfemur -17.5205 28.5385 19.097
rtibia 0.418789
rfoot -4.00985 -24.8043
rtoes -1.1314
lfemur -1.47846 -58.3272 -4.7374
ltibia -6.30084
lfoot -69.8912 54.6886
ltoes 41.5282
1317
root 1.11873 17.6765 10.0352 23.2838 -8.6788 -11.5396
lowerback 4.50746 -0.418959 8.1031
upperback -10.0567 0.681132 3.38534
thorax -13.5617 -0.305001 -0.88774
lowerneck -8.45933 -3.99762 -1.6835
upperneck 15.5029 -6.91853 9.91234
head 6.52154 -2.70447 2.86725
rclavicle 1.01256e-014 -2.46493e-014
rhumerus 47.6039 26.8397 -61.2202
rradius 116.052
rwrist 35.4134
rhand -26.366 -37.5252
rfingers 7.12502
rthumb 0.192219 292.495
lclavicle 1.01256e-014 -2.46493e-014
lhumerus 25.5636 -40.9461 83.1921
lradius 112.787
lwrist -25.9006
lhand -57.5795 -53.8795
lfingers 7.12502
lthumb -29.8447 -26.2642
rfemur -17.235 28.443 19.2479
rtibia 0.484869
rfoot -4.05445 -24.644
rtoes -1.17396
lfemur -0.981684 -58.3439 -5.23949
ltibia -6.2446
lfoot -69.9437 54.5992
ltoes 41.616
1318
root 1.12725 17.6745 10.0374 23.1345 -8.72307 -11.5326
lowerback 4.2996 -0.402688 8.05298
upperback -10.1072 0.669459 3.32208
thorax -13.4894 -0.308923 -0.928482
lowerneck -8.5018 -4.03825 -1.71868
upperneck 15.5978 -7.01381 10.0985
head 6.57374 -2.73394 2.92405
rclavicle -5.47279e-015 -2.28602e-014
rhumerus 47.4692 26.8097 -61.3459
rradius 116.038
rwrist 35.4683
rhand -26.5122 -37.4608
rfingers 7.12502
rthumb 0.0510291 292.559
lclavicle -5.47279e-015 -2.28602e-014
lhumerus 25.4587 -41.0675 83.2474
lradius 112.822
lwrist -25.9765
lhand -57.582 -54.0691
lfingers 7.12502
lthumb -29.847 -26.4543
rfemur -17.0501 28.4203 19.3028
rtibia 0.510269
rfoot -4.10429 -24.5816
rtoes -1.19021
lfemur -0.686558 -58.3319 -5.5876
ltibia -6.18613
lfoot -69.893 54.5668
ltoes 41.6191
1319
root 1.13299 17.6746 10.0382 22.9952 -8.7658 -11.5803
lowerback 4.08479 -0.402683 8.01103
upperback -10.1447 0.640362 3.30936
thorax -13.3998 -0.317927 -0.91563
lowerneck -8.28966 -3.98874 -1.49995
upperneck 15.3593 -6.9051 9.83921
head 6.4368 -2.70372 2.81706
rclavicle -2.12451e-015 -4.05521e-014
rhumerus 47.4338 26.8399 -61.4057
rradius 116.084
rwrist 35.3861
rhand -26.5921 -37.3177
rfingers 7.12502
rthumb -0.026083 292.703
lclavicle -2.12451e-015 -4.05521e-014
lhumerus 25.3293 -41.0972 83.3055
lradius 112.86
lwrist -26.0046
lhand -57.5635 -54.2898
lfingers 7.12502
lthumb -29.8294 -26.6718
rfemur -16.8697 28.4532 19.4178
rtibia 0.506989
rfoot -4.10134 -24.5833
rtoes -1.28265
lfemur -0.454686 -58.2915 -5.80418
ltibia -6.11924
lfoot -69.8021 54.6204
ltoes 41.5151
1320
root 1.12998 17.6877 10.0479 22.3197 -8.49432 -11.4895
lowerback 4.27753 -0.55847 7.83841
upperback -10.0515 0.427415 3.32519
thorax -13.423 -0.39897 -0.770853
lowerneck -8.38661 -3.95409 -1.37385
upperneck 15.7421 -6.89758 9.72302
head 6.56699 -2.6856 2.75911
rclavicle 2.57053e-014 -8.5875e-014
rhumerus 47.3648 26.9075 -61.4418
rradius 116.165
rwrist 35.24
rhand -26.3986 -37.2396
rfingers 7.12502
rthumb 0.160761 292.781
lclavicle 2.57053e-014 -8.5875e-014
lhumerus 25.192 -41.1161 83.3896
lradius 112.898
lwrist -26.0332
lhand -57.4825 -54.1943
lfingers 7.12502
lthumb -29.7521 -26.5625
rfemur -15.7863 29.2237 19.7068
rtibia 0.181744
rfoot -4.36958 -25.6325
rtoes -0.706704
lfemur 0.697447 -58.7155 -6.83123
ltibia -6.04647
lfoot -69.5529 55.0656
ltoes 40.9593
1321
root 1.13669 17.6883 10.0457 22.1471 -8.55134 -11.5034
lowerback 4.27619 -0.537861 7.75144
upperback -10.1448 0.449767 3.30389
thorax -13.5302 -0.385393 -0.74636
lowerneck -8.2645 -4.03185 -1.35638
upperneck 15.6701 -6.97074 9.56555
head 6.52023 -2.73829 2.70113
rclavicle 2.53419e-014 2.98177e-014
rhumerus 47.1574 26.9597 -61.5646
rradius 116.206
rwrist 35.1381
rhand -26.255 -37.0227
rfingers 7.12502
rthumb 0.299419 292.998
lclavicle 2.53419e-014 2.98177e-014
lhumerus 25.007 -41.1801 83.5413
lradius 112.877
lwrist -26.0679
lhand -57.4805 -53.8959
lfingers 7.12502
lthumb -29.7502 -26.2637
rfemur -15.5848 29.0118 19.8409
rtibia 0.187498
rfoot -4.23896 -25.3788
rtoes -1.0846
lfemur 1.07554 -58.677 -7.1982
ltibia -6.0387
lfoot -69.5466 55.021
ltoes 41.0141
1322
root 1.1491 17.6797 10.0343 22.3428 -8.84114 -11.6051
lowerback 3.90103 -0.394474 7.75845
upperback -10.238 0.602681 3.24653
thorax -13.3919 -0.315807 -0.838618
lowerneck -8.41051 -4.07707 -1.52588
upperneck 15.7914 -7.05067 9.72265
head 6.60091 -2.76607 2.77015
rclavicle 1.39475e-014 -2.90226e-014
rhumerus 47.1539 26.9269 -61.5889
rradius 116.255
rwrist 35.1051
rhand -26.2525 -37.0604
rfingers 7.12502
rthumb 0.301907 292.96
lclavicle 1.39475e-014 -2.90226e-014
lhumerus 25.0595 -41.224 83.5094
lradius 112.825
lwrist -26.0704
lhand -57.4918 -54.104
lfingers 7.12502
lthumb -29.761 -26.4738
rfemur -16.0285 28.225 19.8446
rtibia 0.442042
rfoot -3.93845 -24.3086
rtoes -1.88658
lfemur 0.845181 -58.3087 -7.02598
ltibia -6.0704
lfoot -69.6176 54.7627
ltoes 41.3211
1323
root 1.15609 17.6746 10.0252 22.4134 -9.03513 -11.7121
lowerback 3.72477 -0.320598 7.7408
upperback -10.3601 0.686398 3.22195
thorax -13.4198 -0.279197 -0.866083
lowerneck -8.49844 -4.11485 -1.74447
upperneck 15.9507 -7.13531 9.98208
head 6.68971 -2.79171 2.88123
rclavicle -2.56054e-014 5.12864e-014
rhumerus 47.0795 27.0244 -61.6425
rradius 116.285
rwrist 35.2325
rhand -26.3022 -37.3305
rfingers 7.12502
rthumb 0.253856 292.69
lclavicle -2.56054e-014 5.12864e-014
lhumerus 24.8995 -41.2259 83.5821
lradius 112.825
lwrist -26.112
lhand -57.463 -54.6485
lfingers 7.12502
lthumb -29.7335 -27.0133
rfemur -16.2496 27.8415 19.9155
rtibia 0.641452
rfoot -3.85207 -23.6992
rtoes -2.05195
lfemur 0.822529 -58.0511 -6.97109
ltibia -6.10334
lfoot -69.5078 54.7761
ltoes 41.2861
1324
root 1.15845 17.673 10.0192 22.3051 -9.11074 -11.7976
lowerback 3.80976 -0.315582 7.70275
upperback -10.5058 0.708029 3.2199
thorax -13.647 -0.274063 -0.844502
lowerneck -8.33801 -4.02493 -1.73052
upperneck 15.9626 -7.01102 9.96899
head 6.65582 -2.73699 2.88902
rclavicle 2.15247e-014 1.15295e-014
rhumerus 46.8236 27.1903 -61.8058
rradius 116.263
rwrist 35.3722
rhand -26.3025 -37.2245
rfingers 7.12502
rthumb 0.253586 292.796
lclavicle 2.15247e-014 1.15295e-014
lhumerus 24.5449 -41.2177 83.7439
lradius 112.894
lwrist -26.1003
lhand -57.4587 -54.4734
lfingers 7.12502
lthumb -29.7293 -26.8375
rfemur -16.1594 27.7624 20.0743
rtibia 0.713978
rfoot -3.82185 -23.5105
rtoes -2.03549
lfemur 1.10986 -57.9495 -7.14994
ltibia -6.13535
lfoot -69.3584 54.9146
ltoes 41.1366
1325
root 1.16203 17.6713 10.0116 22.1489 -9.16393 -11.8445
lowerback 3.90907 -0.301445 7.66871
upperback -10.5983 0.737469 3.18763
thorax -13.8185 -0.264962 -0.861749
lowerneck -8.3395 -3.94595 -1.48155
upperneck 16.1767 -6.9283 9.78083
head 6.70446 -2.68964 2.79537
rclavicle -2.2531e-014 5.00937e-014
rhumerus 46.648 27.2227 -61.9327
rradius 116.255
rwrist 35.3478
rhand -26.245 -36.9822
rfingers 7.12502
rthumb 0.309161 293.038
lclavicle -2.2531e-014 5.00937e-014
lhumerus 24.3331 -41.2527 83.8166
lradius 112.963
lwrist -26.0724
lhand -57.4134 -54.1385
lfingers 7.12502
lthumb -29.6862 -26.4949
rfemur -16.0016 27.6247 20.2253
rtibia 0.748924
rfoot -3.74081 -23.3058
rtoes -2.30417
lfemur 1.44324 -57.8935 -7.41923
ltibia -6.1383
lfoot -69.2047 55.1026
ltoes 40.9854
1326
root 1.16701 17.6684 10.0035 22.028 -9.17651 -11.8708
lowerback 3.84107 -0.281332 7.64475
upperback -10.6082 0.750962 3.14764
thorax -13.7847 -0.258042 -0.895226
lowerneck -8.40512 -4.06347 -1.4959
upperneck 16.1022 -7.05775 9.64919
head 6.69573 -2.76361 2.74202
rclavicle -1.799e-014 6.75868e-014
rhumerus 46.6835 27.1699 -61.9334
rradius 116.249
rwrist 35.3338
rhand -26.2639 -37.011
rfingers 7.12502
rthumb 0.290907 293.009
lclavicle -1.799e-014 6.75868e-014
lhumerus 24.3921 -41.2929 83.7469
lradius 112.971
lwrist -26.0824
lhand -57.4656 -53.9267
lfingers 7.12502
lthumb -29.736 -26.292
rfemur -15.8752 27.5121 20.3198
rtibia 0.765303
rfoot -3.72208 -23.1483
rtoes -2.43264
lfemur 1.69555 -57.8721 -7.63445
ltibia -6.13375
lfoot -68.992 55.2899
ltoes 40.8176
